<?xml version="1.0" encoding="utf-8"?>
<svg viewBox="0 0 155 41" fill="none" xmlns="http://www.w3.org/2000/svg">
  <path d="M 12.835 10.513 L 13.742 10.513 L 13.742 11.54 L 14.733 11.54 L 14.733 10.513 L 15.644 10.513 L 15.644 13.448 L 14.733 13.448 L 14.733 12.261 L 13.742 12.261 L 13.742 13.448 L 12.835 13.448 Z M 15.677 11.983 Q 15.677 11.264 16.078 10.863 Q 16.478 10.463 17.193 10.463 Q 17.925 10.463 18.322 10.856 Q 18.718 11.25 18.718 11.959 Q 18.718 12.473 18.545 12.802 Q 18.372 13.132 18.044 13.315 Q 17.717 13.498 17.229 13.498 Q 16.732 13.498 16.407 13.34 Q 16.082 13.182 15.879 12.839 Q 15.677 12.497 15.677 11.983 Z M 16.584 11.987 Q 16.584 12.431 16.749 12.625 Q 16.914 12.819 17.199 12.819 Q 17.491 12.819 17.651 12.629 Q 17.811 12.439 17.811 11.947 Q 17.811 11.532 17.644 11.341 Q 17.477 11.15 17.191 11.15 Q 16.916 11.15 16.75 11.344 Q 16.584 11.538 16.584 11.987 Z M 18.986 10.513 L 19.833 10.513 L 20.938 12.137 L 20.938 10.513 L 21.792 10.513 L 21.792 13.448 L 20.938 13.448 L 19.839 11.836 L 19.839 13.448 L 18.986 13.448 Z M 23.415 12.385 L 23.415 11.774 L 24.817 11.774 L 24.817 13.026 Q 24.414 13.3 24.105 13.399 Q 23.796 13.498 23.371 13.498 Q 22.849 13.498 22.519 13.32 Q 22.19 13.142 22.009 12.789 Q 21.828 12.437 21.828 11.981 Q 21.828 11.5 22.026 11.145 Q 22.224 10.789 22.606 10.605 Q 22.905 10.463 23.409 10.463 Q 23.896 10.463 24.137 10.551 Q 24.378 10.639 24.537 10.824 Q 24.696 11.01 24.776 11.294 L 23.902 11.45 Q 23.848 11.284 23.718 11.196 Q 23.589 11.108 23.389 11.108 Q 23.091 11.108 22.914 11.315 Q 22.736 11.522 22.736 11.971 Q 22.736 12.447 22.916 12.651 Q 23.095 12.855 23.415 12.855 Q 23.567 12.855 23.705 12.811 Q 23.844 12.767 24.022 12.661 L 24.022 12.385 Z M 26.06 10.513 L 28.817 10.513 L 28.817 11.238 L 27.892 11.238 L 27.892 13.448 L 26.985 13.448 L 26.985 11.238 L 26.06 11.238 Z M 28.775 10.513 L 29.681 10.513 L 29.681 11.54 L 30.672 11.54 L 30.672 10.513 L 31.583 10.513 L 31.583 13.448 L 30.672 13.448 L 30.672 12.261 L 29.681 12.261 L 29.681 13.448 L 28.775 13.448 Z M 33.536 12.964 L 32.503 12.964 L 32.361 13.448 L 31.434 13.448 L 32.537 10.513 L 33.526 10.513 L 34.629 13.448 L 33.68 13.448 Z M 33.346 12.329 L 33.022 11.274 L 32.7 12.329 Z M 34.728 10.513 L 35.637 10.513 L 35.637 13.448 L 34.728 13.448 Z" transform="matrix(6.769879, 0, 0, 9.136351, -85.313622, -89.609329)" style="fill: rgb(255, 255, 255); white-space: pre;"/>
</svg>